<svg width="1280" height="720" xmlns="http://www.w3.org/2000/svg" xmlns:xlink="http://www.w3.org/1999/xlink" overflow="hidden"><defs><clipPath id="clip0"><rect x="0" y="0" width="1280" height="720"/></clipPath></defs><g clip-path="url(#clip0)"><rect x="0" y="0" width="1280" height="720" fill="#FFFFFF"/><path d="M468 381 499.979 381 499.979 383 468 383ZM498.646 378 506.646 382 498.646 386Z" fill="#FF3300"/><text font-family="Times New Roman,Times New Roman_MSFontService,sans-serif" font-style="italic" font-weight="400" font-size="24" transform="translate(430.995 390)">F</text><text font-family="Times New Roman,Times New Roman_MSFontService,sans-serif" font-weight="400" font-size="16" transform="translate(445.662 395)">xA</text><path d="M524 450.646 524 418.667 526 418.667 526 450.646ZM521 420 525 412 529 420Z" fill="#FF3300"/><text font-family="Times New Roman,Times New Roman_MSFontService,sans-serif" font-style="italic" font-weight="400" font-size="24" transform="translate(530.704 473)">F</text><text font-family="Times New Roman,Times New Roman_MSFontService,sans-serif" font-weight="400" font-size="16" transform="translate(545.371 478)">yA</text><path d="M501.307 406.721 496.631 402.228 492.477 397.521 490.749 394.993 489.378 392.34 488.436 389.527 488.012 386.547 488.158 383.423 488.813 380.194 489.893 376.88 491.323 373.481 494.92 366.551 495.687 365.244 497.412 366.256 496.658 367.541 496.683 367.496 493.116 374.367 493.151 374.294 491.752 377.617 491.781 377.539 490.733 380.759 490.762 380.648 490.134 383.745 490.153 383.593 490.014 386.547 490.005 386.359 490.403 389.155 490.362 388.979 491.25 391.632 491.19 391.49 492.498 394.02 492.435 393.915 494.093 396.342 494.017 396.244 498.104 400.873 498.047 400.814 502.693 405.279ZM492.424 364.877 499.922 360 499.325 368.924Z" fill="#FF3300"/><text font-family="Times New Roman,Times New Roman_MSFontService,sans-serif" font-style="italic" font-weight="400" font-size="24" transform="translate(459.043 362)">M</text><text font-family="Times New Roman,Times New Roman_MSFontService,sans-serif" font-weight="400" font-size="16" transform="translate(479.043 367)">A</text><path d="M728 424.646 728 392.667 730 392.667 730 424.646ZM725 394 729 386 733 394Z" fill="#FF3300"/><text font-family="Times New Roman,Times New Roman_MSFontService,sans-serif" font-style="italic" font-weight="400" font-size="24" transform="translate(734.767 428)">F</text><text font-family="Times New Roman,Times New Roman_MSFontService,sans-serif" font-weight="400" font-size="16" transform="translate(749.434 433)">yB</text><text font-family="Times New Roman,Times New Roman_MSFontService,sans-serif" font-weight="400" font-size="24" transform="translate(768.101 428)">=0.25ql</text><path d="M524 357 524 403.138" stroke="#000000" stroke-width="6" stroke-miterlimit="8" fill="none" fill-rule="evenodd"/><path d="M512 366.605 524.5 360" stroke="#000000" stroke-width="2" stroke-miterlimit="8" fill="none" fill-rule="evenodd"/><path d="M512 372.605 524.5 366" stroke="#000000" stroke-width="2" stroke-miterlimit="8" fill="none" fill-rule="evenodd"/><path d="M512 379.605 524.5 373" stroke="#000000" stroke-width="2" stroke-miterlimit="8" fill="none" fill-rule="evenodd"/><path d="M512 386.605 524.5 380" stroke="#000000" stroke-width="2" stroke-miterlimit="8" fill="none" fill-rule="evenodd"/><path d="M511 393.605 523.5 387" stroke="#000000" stroke-width="2" stroke-miterlimit="8" fill="none" fill-rule="evenodd"/><path d="M512 400.605 524.5 394" stroke="#000000" stroke-width="2" stroke-miterlimit="8" fill="none" fill-rule="evenodd"/><path d="M525 382 729.251 382" stroke="#000000" stroke-width="4" stroke-miterlimit="8" fill="none" fill-rule="evenodd"/><path d="M544 360 544 374.496 542 374.496 542 360ZM547 373.163 543 381.163 539 373.163Z" fill="#FF3300"/><path d="M529 360 529 374.496 527 374.496 527 360ZM532 373.163 528 381.163 524 373.163Z" fill="#FF3300"/><path d="M575 360 575 374.496 573 374.496 573 360ZM578 373.163 574 381.163 570 373.163Z" fill="#FF3300"/><path d="M560 360 560 374.496 558 374.496 558 360ZM563 373.163 559 381.163 555 373.163Z" fill="#FF3300"/><path d="M606 360 606 374.496 604 374.496 604 360ZM609 373.163 605 381.163 601 373.163Z" fill="#FF3300"/><path d="M590 360 590 374.496 588 374.496 588 360ZM593 373.163 589 381.163 585 373.163Z" fill="#FF3300"/><path d="M637 360 637 374.496 635 374.496 635 360ZM640 373.163 636 381.163 632 373.163Z" fill="#FF3300"/><path d="M621 360 621 374.496 619 374.496 619 360ZM624 373.163 620 381.163 616 373.163Z" fill="#FF3300"/><path d="M667 360 667 374.496 665 374.496 665 360ZM670 373.163 666 381.163 662 373.163Z" fill="#FF3300"/><path d="M652 360 652 374.496 650 374.496 650 360ZM655 373.163 651 381.163 647 373.163Z" fill="#FF3300"/><path d="M698 360 698 374.496 696 374.496 696 360ZM701 373.163 697 381.163 693 373.163Z" fill="#FF3300"/><path d="M683 360 683 374.496 681 374.496 681 360ZM686 373.163 682 381.163 678 373.163Z" fill="#FF3300"/><path d="M729 360 729 374.496 727 374.496 727 360ZM732 373.163 728 381.163 724 373.163Z" fill="#FF3300"/><path d="M714 360 714 374.496 712 374.496 712 360ZM717 373.163 713 381.163 709 373.163Z" fill="#FF3300"/><path d="M528 360 729.023 360" stroke="#FF3300" stroke-width="2" stroke-miterlimit="8" fill="none" fill-rule="evenodd"/><text font-family="Times New Roman,Times New Roman_MSFontService,sans-serif" font-weight="400" font-size="24" transform="translate(529.687 410)">A</text><text font-family="Times New Roman,Times New Roman_MSFontService,sans-serif" font-style="italic" font-weight="400" font-size="24" transform="translate(626.35 351)">q</text><path d="M525 436 525 455.388" stroke="#000000" stroke-width="2" stroke-miterlimit="8" fill="none" fill-rule="evenodd"/><path d="M729 436 729 455.388" stroke="#000000" stroke-width="2" stroke-miterlimit="8" fill="none" fill-rule="evenodd"/><path d="M526.979 445 727.271 445 727.271 447 526.979 447ZM534.476 451.53 524.995 446 534.476 440.47C534.953 440.191 535.565 440.352 535.844 440.829 536.122 441.307 535.961 441.919 535.484 442.197L527.484 446.864 527.484 445.136 535.484 449.803C535.961 450.081 536.122 450.693 535.844 451.171 535.565 451.648 534.953 451.809 534.476 451.53ZM719.775 440.47 729.256 446 719.775 451.531C719.298 451.809 718.686 451.648 718.407 451.171 718.129 450.694 718.29 450.081 718.767 449.803L726.767 445.136 726.767 446.864 718.767 442.197C718.29 441.919 718.129 441.307 718.407 440.83 718.686 440.353 719.298 440.191 719.775 440.47Z"/><text font-family="Times New Roman,Times New Roman_MSFontService,sans-serif" font-style="italic" font-weight="400" font-size="24" transform="translate(623.047 439)">l</text><text fill="#2F5597" font-family="Cambria Math,Cambria Math_MSFontService,sans-serif" font-weight="400" font-size="24" transform="translate(168.447 372)">𝐹</text><text fill="#2F5597" font-family="Cambria Math,Cambria Math_MSFontService,sans-serif" font-weight="400" font-size="17.52" transform="translate(180.487 377)">xA</text><text font-family="Cambria Math,Cambria Math_MSFontService,sans-serif" font-weight="400" font-size="24" transform="translate(209.98 372)">=</text><text font-family="Cambria Math,Cambria Math_MSFontService,sans-serif" font-weight="400" font-size="24" transform="translate(234.647 372)">0</text><text font-family="Cambria Math,Cambria Math_MSFontService,sans-serif" font-weight="400" font-size="24" transform="translate(169.1 419)">𝑞</text><text font-family="Cambria Math,Cambria Math_MSFontService,sans-serif" font-weight="400" font-size="24" transform="translate(188.16 419)">∙</text><text font-family="Cambria Math,Cambria Math_MSFontService,sans-serif" font-weight="400" font-size="24" transform="translate(200.327 419)">𝑙</text><text font-family="Cambria Math,Cambria Math_MSFontService,sans-serif" font-weight="400" font-size="24" transform="translate(213.92 419)">−</text><text fill="#2F5597" font-family="Cambria Math,Cambria Math_MSFontService,sans-serif" font-weight="400" font-size="24" transform="translate(237.254 419)">𝐹</text><text fill="#2F5597" font-family="Cambria Math,Cambria Math_MSFontService,sans-serif" font-weight="400" font-size="17.52" transform="translate(249.294 424)">yA</text><text font-family="Cambria Math,Cambria Math_MSFontService,sans-serif" font-weight="400" font-size="24" transform="translate(277.954 419)">−</text><text fill="#C00000" font-family="Cambria Math,Cambria Math_MSFontService,sans-serif" font-weight="400" font-size="24" transform="translate(301.287 419)">𝐹</text><text fill="#C00000" font-family="Cambria Math,Cambria Math_MSFontService,sans-serif" font-weight="400" font-size="17.52" transform="translate(313.327 424)">y</text><text fill="#C00000" font-family="Cambria Math,Cambria Math_MSFontService,sans-serif" font-weight="400" font-size="17.52" transform="translate(323.494 424)">B</text><text font-family="Cambria Math,Cambria Math_MSFontService,sans-serif" font-weight="400" font-size="24" transform="translate(343.154 419)">=</text><text font-family="Cambria Math,Cambria Math_MSFontService,sans-serif" font-weight="400" font-size="24" transform="translate(367.82 419)">0</text><text font-family="Cambria Math,Cambria Math_MSFontService,sans-serif" font-weight="400" font-size="24" transform="translate(169.2 471)">𝑞</text><text font-family="Cambria Math,Cambria Math_MSFontService,sans-serif" font-weight="400" font-size="24" transform="translate(188.26 471)">∙</text><text font-family="Cambria Math,Cambria Math_MSFontService,sans-serif" font-weight="400" font-size="24" transform="translate(200.427 453)">𝑙</text><text font-family="Cambria Math,Cambria Math_MSFontService,sans-serif" font-weight="400" font-size="17.52" transform="translate(208.687 444)">2</text><text font-family="Cambria Math,Cambria Math_MSFontService,sans-serif" font-weight="400" font-size="24" transform="translate(203.467 487)">2</text><path d="M200.047 463.001 219.047 463.001 219.047 465.001 200.047 465.001Z" fill-rule="evenodd"/><text font-family="Cambria Math,Cambria Math_MSFontService,sans-serif" font-weight="400" font-size="24" transform="translate(225.18 471)">+</text><text fill="#2F5597" font-family="Cambria Math,Cambria Math_MSFontService,sans-serif" font-weight="400" font-size="24" transform="translate(248.514 471)">𝑀</text><text fill="#2F5597" font-family="Cambria Math,Cambria Math_MSFontService,sans-serif" font-weight="400" font-size="17.52" transform="translate(267.607 476)">A</text><text font-family="Cambria Math,Cambria Math_MSFontService,sans-serif" font-weight="400" font-size="24" transform="translate(286.1 471)">−</text><text fill="#C00000" font-family="Cambria Math,Cambria Math_MSFontService,sans-serif" font-weight="400" font-size="24" transform="translate(309.434 471)">𝐹</text><text fill="#C00000" font-family="Cambria Math,Cambria Math_MSFontService,sans-serif" font-weight="400" font-size="17.52" transform="translate(321.474 476)">yB</text><text font-family="Cambria Math,Cambria Math_MSFontService,sans-serif" font-weight="400" font-size="24" transform="translate(349.967 471)">∙</text><text font-family="Cambria Math,Cambria Math_MSFontService,sans-serif" font-weight="400" font-size="24" transform="translate(362.134 471)">𝑙</text><text font-family="Cambria Math,Cambria Math_MSFontService,sans-serif" font-weight="400" font-size="24" transform="translate(377.06 471)">=</text><text font-family="Cambria Math,Cambria Math_MSFontService,sans-serif" font-weight="400" font-size="24" transform="translate(401.727 471)">0</text><path d="M4.25651-21.957 15.1302-7.19141 15.1302-6.08854 3.39062 9.84375 19.2044 9.84375C19.9032 9.84375 20.4379 9.59766 20.8086 9.10547 21.1793 8.61328 21.4983 7.51345 21.7656 5.80599L23.1146 5.80599 22.6497 12.487 0.236979 12.487 0.236979 11.5846 13.0065-5.72396 0.610677-22.2852 0.610677-23.151 22.6224-23.151 22.6224-17.7552 21.4193-17.7552C21.2795-19.0495 20.997-20.0733 20.5716-20.8268 20.1463-21.5803 19.5022-21.957 18.6393-21.957Z" transform="translate(76.0971 369)"/><text fill="#000000" fill-opacity="0" font-family="Arial,Arial_MSFontService,sans-serif" font-size="35.638" x="0.236979" y="8.03223">෍</text><text font-family="Cambria Math,Cambria Math_MSFontService,sans-serif" font-weight="400" font-size="18.6667" transform="translate(103.957 369)">𝐹</text><text font-family="Cambria Math,Cambria Math_MSFontService,sans-serif" font-weight="400" font-size="13.6267" transform="translate(111.644 373)">x</text><text font-family="Cambria Math,Cambria Math_MSFontService,sans-serif" font-weight="400" font-size="18.6667" transform="translate(125.104 369)">=</text><text font-family="Cambria Math,Cambria Math_MSFontService,sans-serif" font-weight="400" font-size="18.6667" transform="translate(144.29 369)">0</text><path d="M4.25651-21.957 15.1302-7.19141 15.1302-6.08854 3.39062 9.84375 19.2044 9.84375C19.9032 9.84375 20.4379 9.59766 20.8086 9.10547 21.1793 8.61328 21.4983 7.51345 21.7656 5.80599L23.1146 5.80599 22.6497 12.487 0.236979 12.487 0.236979 11.5846 13.0065-5.72396 0.610677-22.2852 0.610677-23.151 22.6224-23.151 22.6224-17.7552 21.4193-17.7552C21.2795-19.0495 20.997-20.0733 20.5716-20.8268 20.1463-21.5803 19.5022-21.957 18.6393-21.957Z" transform="translate(76.0971 419)"/><text fill="#000000" fill-opacity="0" font-family="Arial,Arial_MSFontService,sans-serif" font-size="35.638" x="0.236979" y="8.03223">෍</text><text font-family="Cambria Math,Cambria Math_MSFontService,sans-serif" font-weight="400" font-size="18.6667" transform="translate(103.957 419)">𝐹</text><text font-family="Cambria Math,Cambria Math_MSFontService,sans-serif" font-weight="400" font-size="13.6267" transform="translate(111.644 423)">y</text><text font-family="Cambria Math,Cambria Math_MSFontService,sans-serif" font-weight="400" font-size="18.6667" transform="translate(125.437 419)">=</text><text font-family="Cambria Math,Cambria Math_MSFontService,sans-serif" font-weight="400" font-size="18.6667" transform="translate(144.624 419)">0</text><path d="M4.25651-21.957 15.1302-7.19141 15.1302-6.08854 3.39062 9.84375 19.2044 9.84375C19.9032 9.84375 20.4379 9.59766 20.8086 9.10547 21.1793 8.61328 21.4983 7.51345 21.7656 5.80599L23.1146 5.80599 22.6497 12.487 0.236979 12.487 0.236979 11.5846 13.0065-5.72396 0.610677-22.2852 0.610677-23.151 22.6224-23.151 22.6224-17.7552 21.4193-17.7552C21.2795-19.0495 20.997-20.0733 20.5716-20.8268 20.1463-21.5803 19.5022-21.957 18.6393-21.957Z" transform="translate(76.1038 469)"/><text fill="#000000" fill-opacity="0" font-family="Arial,Arial_MSFontService,sans-serif" font-size="35.638" x="0.236979" y="8.03223">෍</text><text font-family="Cambria Math,Cambria Math_MSFontService,sans-serif" font-weight="400" font-size="18.6667" transform="translate(103.964 469)">𝑀</text><text font-family="Cambria Math,Cambria Math_MSFontService,sans-serif" font-weight="400" font-size="18.6667" transform="translate(125.437 469)">=</text><text font-family="Cambria Math,Cambria Math_MSFontService,sans-serif" font-weight="400" font-size="18.6667" transform="translate(144.624 469)">0</text><text font-family="Times New Roman,Times New Roman_MSFontService,sans-serif" font-weight="400" font-size="24" transform="translate(455.502 318)">B</text><path d="M246 265 246 311.138" stroke="#000000" stroke-width="6" stroke-miterlimit="8" fill="none" fill-rule="evenodd"/><path d="M234 274.605 246.5 268" stroke="#000000" stroke-width="2" stroke-miterlimit="8" fill="none" fill-rule="evenodd"/><path d="M234 281.605 246.5 275" stroke="#000000" stroke-width="2" stroke-miterlimit="8" fill="none" fill-rule="evenodd"/><path d="M234 287.605 246.5 281" stroke="#000000" stroke-width="2" stroke-miterlimit="8" fill="none" fill-rule="evenodd"/><path d="M234 294.605 246.5 288" stroke="#000000" stroke-width="2" stroke-miterlimit="8" fill="none" fill-rule="evenodd"/><path d="M233 301.605 245.5 295" stroke="#000000" stroke-width="2" stroke-miterlimit="8" fill="none" fill-rule="evenodd"/><path d="M234 308.605 246.5 302" stroke="#000000" stroke-width="2" stroke-miterlimit="8" fill="none" fill-rule="evenodd"/><path d="M247 290 451.251 290" stroke="#000000" stroke-width="4" stroke-miterlimit="8" fill="none" fill-rule="evenodd"/><text font-family="Times New Roman,Times New Roman_MSFontService,sans-serif" font-weight="400" font-size="24" transform="translate(251.699 318)">A</text><path d="M245.519 288.608C245.509 262.89 244.885 272.173 245.019 234 269.643 267.101 290.541 302.693 324.288 311.656 358.035 320.619 420.145 301.872 450 289.278L245.519 288.608Z" fill="#47D45A" fill-rule="evenodd" fill-opacity="0.501961"/><text font-family="Times New Roman,Times New Roman_MSFontService,sans-serif" font-style="italic" font-weight="400" font-size="24" transform="translate(395.494 266)">M</text><text font-family="Microsoft YaHei,Microsoft YaHei_MSFontService,sans-serif" font-weight="400" font-size="24" transform="translate(415.494 266)">图</text><text font-family="Times New Roman,Times New Roman_MSFontService,sans-serif" font-weight="400" font-size="24" transform="translate(727.783 318)">B</text><path d="M519 265 519 311.138" stroke="#000000" stroke-width="6" stroke-miterlimit="8" fill="none" fill-rule="evenodd"/><path d="M506 274.605 518.5 268" stroke="#000000" stroke-width="2" stroke-miterlimit="8" fill="none" fill-rule="evenodd"/><path d="M506 281.605 518.5 275" stroke="#000000" stroke-width="2" stroke-miterlimit="8" fill="none" fill-rule="evenodd"/><path d="M507 287.605 519.5 281" stroke="#000000" stroke-width="2" stroke-miterlimit="8" fill="none" fill-rule="evenodd"/><path d="M506 294.605 518.5 288" stroke="#000000" stroke-width="2" stroke-miterlimit="8" fill="none" fill-rule="evenodd"/><path d="M506 301.605 518.5 295" stroke="#000000" stroke-width="2" stroke-miterlimit="8" fill="none" fill-rule="evenodd"/><path d="M506 308.605 518.5 302" stroke="#000000" stroke-width="2" stroke-miterlimit="8" fill="none" fill-rule="evenodd"/><path d="M519 290 723.251 290" stroke="#000000" stroke-width="4" stroke-miterlimit="8" fill="none" fill-rule="evenodd"/><text font-family="Times New Roman,Times New Roman_MSFontService,sans-serif" font-weight="400" font-size="24" transform="translate(523.98 318)">A</text><path d="M519 290.1 519 234 724 336 724 292.65 519 290.1Z" fill="#61CBF4" fill-rule="evenodd" fill-opacity="0.501961"/><text font-family="Times New Roman,Times New Roman_MSFontService,sans-serif" font-style="italic" font-weight="400" font-size="24" transform="translate(668.003 266)">F</text><text font-family="Times New Roman,Times New Roman_MSFontService,sans-serif" font-weight="400" font-size="16" transform="translate(682.67 271)">Q</text><text font-family="Microsoft YaHei,Microsoft YaHei_MSFontService,sans-serif" font-weight="400" font-size="24" transform="translate(694.17 266)">图</text></g></svg>